<?xml version="1.0" encoding="UTF-8" standalone="no"?>
<!DOCTYPE svg PUBLIC "-//W3C//DTD SVG 1.1//EN"
 "http://www.w3.org/Graphics/SVG/1.1/DTD/svg11.dtd">
<!-- Generated by graphviz version 2.50.0 (0)
 -->
<!-- Pages: 1 -->
<svg width="873pt" height="404pt"
 viewBox="0.00 0.00 873.38 404.00" xmlns="http://www.w3.org/2000/svg" xmlns:xlink="http://www.w3.org/1999/xlink">
<g id="graph0" class="graph" transform="scale(1 1) rotate(0) translate(4 400)">
<polygon fill="white" stroke="transparent" points="-4,4 -4,-400 869.38,-400 869.38,4 -4,4"/>
<!-- bitonic_sort -->
<g id="node1" class="node">
<title>bitonic_sort</title>
<ellipse fill="none" stroke="black" cx="233.69" cy="-234" rx="52.79" ry="18"/>
<text text-anchor="middle" x="233.69" y="-230.3" font-family="Times,serif" font-size="14.00">bitonic_sort</text>
</g>
<!-- Bitonic_Sorter -->
<g id="node2" class="node">
<title>Bitonic_Sorter</title>
<ellipse fill="none" stroke="black" cx="233.69" cy="-162" rx="62.29" ry="18"/>
<text text-anchor="middle" x="233.69" y="-158.3" font-family="Times,serif" font-size="14.00">Bitonic_Sorter</text>
</g>
<!-- bitonic_sort&#45;&#45;Bitonic_Sorter -->
<g id="edge1" class="edge">
<title>bitonic_sort&#45;&#45;Bitonic_Sorter</title>
<path fill="none" stroke="black" d="M233.69,-215.7C233.69,-204.85 233.69,-190.92 233.69,-180.1"/>
</g>
<!-- sortnet_bitonicsort -->
<g id="node3" class="node">
<title>sortnet_bitonicsort</title>
<ellipse fill="none" stroke="black" cx="76.69" cy="-162" rx="76.89" ry="18"/>
<text text-anchor="middle" x="76.69" y="-158.3" font-family="Times,serif" font-size="14.00">sortnet_bitonicsort</text>
</g>
<!-- bitonic_sort&#45;&#45;sortnet_bitonicsort -->
<g id="edge2" class="edge">
<title>bitonic_sort&#45;&#45;sortnet_bitonicsort</title>
<path fill="none" stroke="black" d="M203.05,-219.34C176.55,-207.52 138.27,-190.46 110.8,-178.21"/>
</g>
<!-- segment_selector -->
<g id="node4" class="node">
<title>segment_selector</title>
<ellipse fill="none" stroke="black" cx="304.69" cy="-306" rx="72.29" ry="18"/>
<text text-anchor="middle" x="304.69" y="-302.3" font-family="Times,serif" font-size="14.00">segment_selector</text>
</g>
<!-- segment_selector&#45;&#45;bitonic_sort -->
<g id="edge3" class="edge">
<title>segment_selector&#45;&#45;bitonic_sort</title>
<path fill="none" stroke="black" d="M287.87,-288.41C276.55,-277.25 261.69,-262.6 250.4,-251.47"/>
</g>
<!-- chamber -->
<g id="node5" class="node">
<title>chamber</title>
<ellipse fill="none" stroke="black" cx="568.69" cy="-378" rx="41.69" ry="18"/>
<text text-anchor="middle" x="568.69" y="-374.3" font-family="Times,serif" font-size="14.00">chamber</text>
</g>
<!-- chamber&#45;&#45;segment_selector -->
<g id="edge4" class="edge">
<title>chamber&#45;&#45;segment_selector</title>
<path fill="none" stroke="black" d="M534.18,-367.85C487.64,-355.51 404.56,-333.48 352.16,-319.59"/>
</g>
<!-- partition -->
<g id="node6" class="node">
<title>partition</title>
<ellipse fill="none" stroke="black" cx="505.69" cy="-306" rx="40.09" ry="18"/>
<text text-anchor="middle" x="505.69" y="-302.3" font-family="Times,serif" font-size="14.00">partition</text>
</g>
<!-- chamber&#45;&#45;partition -->
<g id="edge14" class="edge">
<title>chamber&#45;&#45;partition</title>
<path fill="none" stroke="black" d="M554.08,-360.76C543.9,-349.46 530.39,-334.44 520.23,-323.15"/>
</g>
<!-- dav_to_phase -->
<g id="node11" class="node">
<title>dav_to_phase</title>
<ellipse fill="none" stroke="black" cx="593.69" cy="-162" rx="59.29" ry="18"/>
<text text-anchor="middle" x="593.69" y="-158.3" font-family="Times,serif" font-size="14.00">dav_to_phase</text>
</g>
<!-- chamber&#45;&#45;dav_to_phase -->
<g id="edge17" class="edge">
<title>chamber&#45;&#45;dav_to_phase</title>
<path fill="none" stroke="black" d="M573.63,-359.8C580.21,-335.87 591.52,-291.08 595.69,-252 597.39,-236.09 595.99,-232 595.69,-216 595.47,-204.03 594.96,-190.55 594.51,-180.18"/>
</g>
<!-- chamber_pulse_extension -->
<g id="node14" class="node">
<title>chamber_pulse_extension</title>
<ellipse fill="none" stroke="black" cx="762.69" cy="-306" rx="102.88" ry="18"/>
<text text-anchor="middle" x="762.69" y="-302.3" font-family="Times,serif" font-size="14.00">chamber_pulse_extension</text>
</g>
<!-- chamber&#45;&#45;chamber_pulse_extension -->
<g id="edge16" class="edge">
<title>chamber&#45;&#45;chamber_pulse_extension</title>
<path fill="none" stroke="black" d="M599.86,-365.75C632.42,-354 683.72,-335.49 720.03,-322.39"/>
</g>
<!-- deghost -->
<g id="node7" class="node">
<title>deghost</title>
<ellipse fill="none" stroke="black" cx="389.69" cy="-234" rx="38.19" ry="18"/>
<text text-anchor="middle" x="389.69" y="-230.3" font-family="Times,serif" font-size="14.00">deghost</text>
</g>
<!-- partition&#45;&#45;deghost -->
<g id="edge5" class="edge">
<title>partition&#45;&#45;deghost</title>
<path fill="none" stroke="black" d="M482.78,-291.17C462.44,-278.9 432.89,-261.06 412.56,-248.8"/>
</g>
<!-- priority_encoder -->
<g id="node8" class="node">
<title>priority_encoder</title>
<ellipse fill="none" stroke="black" cx="329.69" cy="-90" rx="69.59" ry="18"/>
<text text-anchor="middle" x="329.69" y="-86.3" font-family="Times,serif" font-size="14.00">priority_encoder</text>
</g>
<!-- partition&#45;&#45;priority_encoder -->
<g id="edge7" class="edge">
<title>partition&#45;&#45;priority_encoder</title>
<path fill="none" stroke="black" d="M465.49,-303.9C427.44,-300.51 371.93,-289.01 342.69,-252 309.32,-209.75 318.7,-140.31 325.47,-108.23"/>
</g>
<!-- pat_unit_mux -->
<g id="node10" class="node">
<title>pat_unit_mux</title>
<ellipse fill="none" stroke="black" cx="505.69" cy="-234" rx="59.59" ry="18"/>
<text text-anchor="middle" x="505.69" y="-230.3" font-family="Times,serif" font-size="14.00">pat_unit_mux</text>
</g>
<!-- partition&#45;&#45;pat_unit_mux -->
<g id="edge12" class="edge">
<title>partition&#45;&#45;pat_unit_mux</title>
<path fill="none" stroke="black" d="M505.69,-287.7C505.69,-276.85 505.69,-262.92 505.69,-252.1"/>
</g>
<!-- partition&#45;&#45;dav_to_phase -->
<g id="edge13" class="edge">
<title>partition&#45;&#45;dav_to_phase</title>
<path fill="none" stroke="black" d="M530.75,-291.82C545.76,-282.63 563.97,-268.99 574.69,-252 588.69,-229.82 592.53,-198.98 593.49,-180.04"/>
</g>
<!-- r -->
<g id="node9" class="node">
<title>r</title>
<ellipse fill="none" stroke="black" cx="329.69" cy="-18" rx="27" ry="18"/>
<text text-anchor="middle" x="329.69" y="-14.3" font-family="Times,serif" font-size="14.00">r</text>
</g>
<!-- priority_encoder&#45;&#45;r -->
<g id="edge6" class="edge">
<title>priority_encoder&#45;&#45;r</title>
<path fill="none" stroke="black" d="M329.69,-71.7C329.69,-60.85 329.69,-46.92 329.69,-36.1"/>
</g>
<!-- pat_unit_mux&#45;&#45;dav_to_phase -->
<g id="edge8" class="edge">
<title>pat_unit_mux&#45;&#45;dav_to_phase</title>
<path fill="none" stroke="black" d="M526.1,-216.76C540.32,-205.46 559.2,-190.44 573.39,-179.15"/>
</g>
<!-- pat_unit -->
<g id="node12" class="node">
<title>pat_unit</title>
<ellipse fill="none" stroke="black" cx="471.69" cy="-162" rx="39.79" ry="18"/>
<text text-anchor="middle" x="471.69" y="-158.3" font-family="Times,serif" font-size="14.00">pat_unit</text>
</g>
<!-- pat_unit_mux&#45;&#45;pat_unit -->
<g id="edge11" class="edge">
<title>pat_unit_mux&#45;&#45;pat_unit</title>
<path fill="none" stroke="black" d="M497.46,-216.05C492.12,-205.05 485.18,-190.76 479.85,-179.79"/>
</g>
<!-- pat_unit&#45;&#45;priority_encoder -->
<g id="edge9" class="edge">
<title>pat_unit&#45;&#45;priority_encoder</title>
<path fill="none" stroke="black" d="M445.65,-148.16C421.63,-136.32 385.95,-118.73 360.52,-106.19"/>
</g>
<!-- hit_count -->
<g id="node13" class="node">
<title>hit_count</title>
<ellipse fill="none" stroke="black" cx="471.69" cy="-90" rx="44.39" ry="18"/>
<text text-anchor="middle" x="471.69" y="-86.3" font-family="Times,serif" font-size="14.00">hit_count</text>
</g>
<!-- pat_unit&#45;&#45;hit_count -->
<g id="edge10" class="edge">
<title>pat_unit&#45;&#45;hit_count</title>
<path fill="none" stroke="black" d="M471.69,-143.7C471.69,-132.85 471.69,-118.92 471.69,-108.1"/>
</g>
<!-- pulse_extension -->
<g id="node15" class="node">
<title>pulse_extension</title>
<ellipse fill="none" stroke="black" cx="762.69" cy="-234" rx="67.69" ry="18"/>
<text text-anchor="middle" x="762.69" y="-230.3" font-family="Times,serif" font-size="14.00">pulse_extension</text>
</g>
<!-- chamber_pulse_extension&#45;&#45;pulse_extension -->
<g id="edge15" class="edge">
<title>chamber_pulse_extension&#45;&#45;pulse_extension</title>
<path fill="none" stroke="black" d="M762.69,-287.7C762.69,-276.85 762.69,-262.92 762.69,-252.1"/>
</g>
</g>
</svg>
