<?xml version="1.0" encoding="UTF-8" standalone="no"?>
<!DOCTYPE svg PUBLIC "-//W3C//DTD SVG 1.1//EN"
 "http://www.w3.org/Graphics/SVG/1.1/DTD/svg11.dtd">
<!-- Generated by graphviz version 2.50.0 (0)
 -->
<!-- Pages: 1 -->
<svg width="912pt" height="404pt"
 viewBox="0.00 0.00 912.38 404.00" xmlns="http://www.w3.org/2000/svg" xmlns:xlink="http://www.w3.org/1999/xlink">
<g id="graph0" class="graph" transform="scale(1 1) rotate(0) translate(4 400)">
<polygon fill="white" stroke="transparent" points="-4,4 -4,-400 908.38,-400 908.38,4 -4,4"/>
<!-- chamber -->
<g id="node1" class="node">
<title>chamber</title>
<ellipse fill="none" stroke="black" cx="456.69" cy="-378" rx="41.69" ry="18"/>
<text text-anchor="middle" x="456.69" y="-374.3" font-family="Times,serif" font-size="14.00">chamber</text>
</g>
<!-- ila_chamber -->
<g id="node2" class="node">
<title>ila_chamber</title>
<ellipse fill="none" stroke="black" cx="279.69" cy="-234" rx="54.69" ry="18"/>
<text text-anchor="middle" x="279.69" y="-230.3" font-family="Times,serif" font-size="14.00">ila_chamber</text>
</g>
<!-- chamber&#45;&#45;ila_chamber -->
<g id="edge1" class="edge">
<title>chamber&#45;&#45;ila_chamber</title>
<path fill="none" stroke="black" d="M437.75,-361.8C404.04,-334.76 333.95,-278.53 299.58,-250.95"/>
</g>
<!-- segment_selector -->
<g id="node6" class="node">
<title>segment_selector</title>
<ellipse fill="none" stroke="black" cx="188.69" cy="-306" rx="72.29" ry="18"/>
<text text-anchor="middle" x="188.69" y="-302.3" font-family="Times,serif" font-size="14.00">segment_selector</text>
</g>
<!-- chamber&#45;&#45;segment_selector -->
<g id="edge5" class="edge">
<title>chamber&#45;&#45;segment_selector</title>
<path fill="none" stroke="black" d="M421.93,-367.92C374.63,-355.56 289.79,-333.4 236.51,-319.49"/>
</g>
<!-- partition -->
<g id="node7" class="node">
<title>partition</title>
<ellipse fill="none" stroke="black" cx="456.69" cy="-306" rx="40.09" ry="18"/>
<text text-anchor="middle" x="456.69" y="-302.3" font-family="Times,serif" font-size="14.00">partition</text>
</g>
<!-- chamber&#45;&#45;partition -->
<g id="edge16" class="edge">
<title>chamber&#45;&#45;partition</title>
<path fill="none" stroke="black" d="M456.69,-359.7C456.69,-348.85 456.69,-334.92 456.69,-324.1"/>
</g>
<!-- dav_to_phase -->
<g id="node12" class="node">
<title>dav_to_phase</title>
<ellipse fill="none" stroke="black" cx="651.69" cy="-162" rx="59.29" ry="18"/>
<text text-anchor="middle" x="651.69" y="-158.3" font-family="Times,serif" font-size="14.00">dav_to_phase</text>
</g>
<!-- chamber&#45;&#45;dav_to_phase -->
<g id="edge19" class="edge">
<title>chamber&#45;&#45;dav_to_phase</title>
<path fill="none" stroke="black" d="M487.04,-365.39C528.72,-347.73 602.62,-309.92 638.69,-252 652.4,-230 653.79,-199.11 653.08,-180.11"/>
</g>
<!-- chamber_pulse_extension -->
<g id="node15" class="node">
<title>chamber_pulse_extension</title>
<ellipse fill="none" stroke="black" cx="801.69" cy="-306" rx="102.88" ry="18"/>
<text text-anchor="middle" x="801.69" y="-302.3" font-family="Times,serif" font-size="14.00">chamber_pulse_extension</text>
</g>
<!-- chamber&#45;&#45;chamber_pulse_extension -->
<g id="edge18" class="edge">
<title>chamber&#45;&#45;chamber_pulse_extension</title>
<path fill="none" stroke="black" d="M493.61,-369.51C551.76,-357.71 665.43,-334.65 737.25,-320.08"/>
</g>
<!-- bitonic_sort -->
<g id="node3" class="node">
<title>bitonic_sort</title>
<ellipse fill="none" stroke="black" cx="154.69" cy="-234" rx="52.79" ry="18"/>
<text text-anchor="middle" x="154.69" y="-230.3" font-family="Times,serif" font-size="14.00">bitonic_sort</text>
</g>
<!-- Bitonic_Sorter -->
<g id="node4" class="node">
<title>Bitonic_Sorter</title>
<ellipse fill="none" stroke="black" cx="233.69" cy="-162" rx="62.29" ry="18"/>
<text text-anchor="middle" x="233.69" y="-158.3" font-family="Times,serif" font-size="14.00">Bitonic_Sorter</text>
</g>
<!-- bitonic_sort&#45;&#45;Bitonic_Sorter -->
<g id="edge2" class="edge">
<title>bitonic_sort&#45;&#45;Bitonic_Sorter</title>
<path fill="none" stroke="black" d="M173.02,-216.76C185.69,-205.54 202.49,-190.65 215.2,-179.39"/>
</g>
<!-- sortnet_bitonicsort -->
<g id="node5" class="node">
<title>sortnet_bitonicsort</title>
<ellipse fill="none" stroke="black" cx="76.69" cy="-162" rx="76.89" ry="18"/>
<text text-anchor="middle" x="76.69" y="-158.3" font-family="Times,serif" font-size="14.00">sortnet_bitonicsort</text>
</g>
<!-- bitonic_sort&#45;&#45;sortnet_bitonicsort -->
<g id="edge3" class="edge">
<title>bitonic_sort&#45;&#45;sortnet_bitonicsort</title>
<path fill="none" stroke="black" d="M136.6,-216.76C124.18,-205.62 107.74,-190.87 95.23,-179.63"/>
</g>
<!-- segment_selector&#45;&#45;bitonic_sort -->
<g id="edge4" class="edge">
<title>segment_selector&#45;&#45;bitonic_sort</title>
<path fill="none" stroke="black" d="M180.46,-288.05C175.12,-277.05 168.18,-262.76 162.85,-251.79"/>
</g>
<!-- partition&#45;&#45;ila_chamber -->
<g id="edge6" class="edge">
<title>partition&#45;&#45;ila_chamber</title>
<path fill="none" stroke="black" d="M427.47,-293.44C396.04,-281.01 346.18,-261.29 313.19,-248.25"/>
</g>
<!-- deghost -->
<g id="node8" class="node">
<title>deghost</title>
<ellipse fill="none" stroke="black" cx="390.69" cy="-234" rx="38.19" ry="18"/>
<text text-anchor="middle" x="390.69" y="-230.3" font-family="Times,serif" font-size="14.00">deghost</text>
</g>
<!-- partition&#45;&#45;deghost -->
<g id="edge7" class="edge">
<title>partition&#45;&#45;deghost</title>
<path fill="none" stroke="black" d="M441.72,-289.12C430.92,-277.66 416.4,-262.26 405.61,-250.82"/>
</g>
<!-- priority_encoder -->
<g id="node9" class="node">
<title>priority_encoder</title>
<ellipse fill="none" stroke="black" cx="456.69" cy="-90" rx="69.59" ry="18"/>
<text text-anchor="middle" x="456.69" y="-86.3" font-family="Times,serif" font-size="14.00">priority_encoder</text>
</g>
<!-- partition&#45;&#45;priority_encoder -->
<g id="edge9" class="edge">
<title>partition&#45;&#45;priority_encoder</title>
<path fill="none" stroke="black" d="M456.69,-287.85C456.69,-247.78 456.69,-148.38 456.69,-108.23"/>
</g>
<!-- pat_unit_mux -->
<g id="node11" class="node">
<title>pat_unit_mux</title>
<ellipse fill="none" stroke="black" cx="544.69" cy="-234" rx="59.59" ry="18"/>
<text text-anchor="middle" x="544.69" y="-230.3" font-family="Times,serif" font-size="14.00">pat_unit_mux</text>
</g>
<!-- partition&#45;&#45;pat_unit_mux -->
<g id="edge14" class="edge">
<title>partition&#45;&#45;pat_unit_mux</title>
<path fill="none" stroke="black" d="M475.79,-289.81C490.14,-278.39 509.77,-262.78 524.41,-251.13"/>
</g>
<!-- partition&#45;&#45;dav_to_phase -->
<g id="edge15" class="edge">
<title>partition&#45;&#45;dav_to_phase</title>
<path fill="none" stroke="black" d="M495.44,-300.9C530.31,-295.32 580.96,-282.28 613.69,-252 634.54,-232.72 644.42,-200.11 648.73,-180.17"/>
</g>
<!-- r -->
<g id="node10" class="node">
<title>r</title>
<ellipse fill="none" stroke="black" cx="456.69" cy="-18" rx="27" ry="18"/>
<text text-anchor="middle" x="456.69" y="-14.3" font-family="Times,serif" font-size="14.00">r</text>
</g>
<!-- priority_encoder&#45;&#45;r -->
<g id="edge8" class="edge">
<title>priority_encoder&#45;&#45;r</title>
<path fill="none" stroke="black" d="M456.69,-71.7C456.69,-60.85 456.69,-46.92 456.69,-36.1"/>
</g>
<!-- pat_unit_mux&#45;&#45;dav_to_phase -->
<g id="edge10" class="edge">
<title>pat_unit_mux&#45;&#45;dav_to_phase</title>
<path fill="none" stroke="black" d="M568.44,-217.46C586.05,-205.95 609.96,-190.3 627.64,-178.73"/>
</g>
<!-- pat_unit -->
<g id="node13" class="node">
<title>pat_unit</title>
<ellipse fill="none" stroke="black" cx="534.69" cy="-162" rx="39.79" ry="18"/>
<text text-anchor="middle" x="534.69" y="-158.3" font-family="Times,serif" font-size="14.00">pat_unit</text>
</g>
<!-- pat_unit_mux&#45;&#45;pat_unit -->
<g id="edge13" class="edge">
<title>pat_unit_mux&#45;&#45;pat_unit</title>
<path fill="none" stroke="black" d="M542.22,-215.7C540.67,-204.85 538.68,-190.92 537.14,-180.1"/>
</g>
<!-- pat_unit&#45;&#45;priority_encoder -->
<g id="edge11" class="edge">
<title>pat_unit&#45;&#45;priority_encoder</title>
<path fill="none" stroke="black" d="M517.38,-145.46C504.82,-134.19 487.84,-118.96 475.04,-107.47"/>
</g>
<!-- hit_count -->
<g id="node14" class="node">
<title>hit_count</title>
<ellipse fill="none" stroke="black" cx="588.69" cy="-90" rx="44.39" ry="18"/>
<text text-anchor="middle" x="588.69" y="-86.3" font-family="Times,serif" font-size="14.00">hit_count</text>
</g>
<!-- pat_unit&#45;&#45;hit_count -->
<g id="edge12" class="edge">
<title>pat_unit&#45;&#45;hit_count</title>
<path fill="none" stroke="black" d="M547.22,-144.76C555.82,-133.62 567.2,-118.87 575.86,-107.63"/>
</g>
<!-- pulse_extension -->
<g id="node16" class="node">
<title>pulse_extension</title>
<ellipse fill="none" stroke="black" cx="801.69" cy="-234" rx="67.69" ry="18"/>
<text text-anchor="middle" x="801.69" y="-230.3" font-family="Times,serif" font-size="14.00">pulse_extension</text>
</g>
<!-- chamber_pulse_extension&#45;&#45;pulse_extension -->
<g id="edge17" class="edge">
<title>chamber_pulse_extension&#45;&#45;pulse_extension</title>
<path fill="none" stroke="black" d="M801.69,-287.7C801.69,-276.85 801.69,-262.92 801.69,-252.1"/>
</g>
</g>
</svg>
