<?xml version="1.0" encoding="UTF-8" standalone="no"?>
<!DOCTYPE svg PUBLIC "-//W3C//DTD SVG 1.1//EN"
 "http://www.w3.org/Graphics/SVG/1.1/DTD/svg11.dtd">
<!-- Generated by graphviz version 2.44.0 (0)
 -->
<!-- Pages: 1 -->
<svg width="528pt" height="332pt"
 viewBox="0.00 0.00 528.04 332.00" xmlns="http://www.w3.org/2000/svg" xmlns:xlink="http://www.w3.org/1999/xlink">
<g id="graph0" class="graph" transform="scale(1 1) rotate(0) translate(4 328)">
<polygon fill="white" stroke="transparent" points="-4,4 -4,-328 524.04,-328 524.04,4 -4,4"/>
<!-- bitonic_sort -->
<g id="node1" class="node">
<title>bitonic_sort</title>
<ellipse fill="none" stroke="black" cx="94.89" cy="-162" rx="63.09" ry="18"/>
<text text-anchor="middle" x="94.89" y="-158.3" font-family="Times-Roman" font-size="14.00">bitonic_sort</text>
</g>
<!-- sortnet_bitonicsort -->
<g id="node2" class="node">
<title>sortnet_bitonicsort</title>
<ellipse fill="none" stroke="black" cx="94.89" cy="-90" rx="94.78" ry="18"/>
<text text-anchor="middle" x="94.89" y="-86.3" font-family="Times-Roman" font-size="14.00">sortnet_bitonicsort</text>
</g>
<!-- bitonic_sort&#45;&#45;sortnet_bitonicsort -->
<g id="edge1" class="edge">
<title>bitonic_sort&#45;&#45;sortnet_bitonicsort</title>
<path fill="none" stroke="black" d="M94.89,-143.7C94.89,-132.85 94.89,-118.92 94.89,-108.1"/>
</g>
<!-- segment_selector -->
<g id="node3" class="node">
<title>segment_selector</title>
<ellipse fill="none" stroke="black" cx="94.89" cy="-234" rx="90.18" ry="18"/>
<text text-anchor="middle" x="94.89" y="-230.3" font-family="Times-Roman" font-size="14.00">segment_selector</text>
</g>
<!-- segment_selector&#45;&#45;bitonic_sort -->
<g id="edge2" class="edge">
<title>segment_selector&#45;&#45;bitonic_sort</title>
<path fill="none" stroke="black" d="M94.89,-215.7C94.89,-204.85 94.89,-190.92 94.89,-180.1"/>
</g>
<!-- chamber -->
<g id="node4" class="node">
<title>chamber</title>
<ellipse fill="none" stroke="black" cx="172.89" cy="-306" rx="50.89" ry="18"/>
<text text-anchor="middle" x="172.89" y="-302.3" font-family="Times-Roman" font-size="14.00">chamber</text>
</g>
<!-- chamber&#45;&#45;segment_selector -->
<g id="edge3" class="edge">
<title>chamber&#45;&#45;segment_selector</title>
<path fill="none" stroke="black" d="M155.19,-289.12C142.79,-277.98 126.23,-263.13 113.61,-251.8"/>
</g>
<!-- partition -->
<g id="node5" class="node">
<title>partition</title>
<ellipse fill="none" stroke="black" cx="251.89" cy="-234" rx="48.99" ry="18"/>
<text text-anchor="middle" x="251.89" y="-230.3" font-family="Times-Roman" font-size="14.00">partition</text>
</g>
<!-- chamber&#45;&#45;partition -->
<g id="edge9" class="edge">
<title>chamber&#45;&#45;partition</title>
<path fill="none" stroke="black" d="M190.82,-289.12C203.75,-277.66 221.12,-262.26 234.04,-250.82"/>
</g>
<!-- priority_encoder -->
<g id="node6" class="node">
<title>priority_encoder</title>
<ellipse fill="none" stroke="black" cx="271.89" cy="-18" rx="84.49" ry="18"/>
<text text-anchor="middle" x="271.89" y="-14.3" font-family="Times-Roman" font-size="14.00">priority_encoder</text>
</g>
<!-- partition&#45;&#45;priority_encoder -->
<g id="edge4" class="edge">
<title>partition&#45;&#45;priority_encoder</title>
<path fill="none" stroke="black" d="M250.36,-215.92C248.09,-186.34 245.01,-123.8 253.89,-72 255.99,-59.74 260.49,-46.49 264.47,-36.31"/>
</g>
<!-- pat_unit_mux -->
<g id="node8" class="node">
<title>pat_unit_mux</title>
<ellipse fill="none" stroke="black" cx="333.89" cy="-162" rx="71.49" ry="18"/>
<text text-anchor="middle" x="333.89" y="-158.3" font-family="Times-Roman" font-size="14.00">pat_unit_mux</text>
</g>
<!-- partition&#45;&#45;pat_unit_mux -->
<g id="edge8" class="edge">
<title>partition&#45;&#45;pat_unit_mux</title>
<path fill="none" stroke="black" d="M270.5,-217.12C283.63,-205.9 301.2,-190.91 314.5,-179.55"/>
</g>
<!-- pat_unit -->
<g id="node7" class="node">
<title>pat_unit</title>
<ellipse fill="none" stroke="black" cx="309.89" cy="-90" rx="47.39" ry="18"/>
<text text-anchor="middle" x="309.89" y="-86.3" font-family="Times-Roman" font-size="14.00">pat_unit</text>
</g>
<!-- pat_unit&#45;&#45;priority_encoder -->
<g id="edge5" class="edge">
<title>pat_unit&#45;&#45;priority_encoder</title>
<path fill="none" stroke="black" d="M300.69,-72.05C294.81,-61.21 287.19,-47.18 281.27,-36.28"/>
</g>
<!-- pat_unit_mux&#45;&#45;pat_unit -->
<g id="edge6" class="edge">
<title>pat_unit_mux&#45;&#45;pat_unit</title>
<path fill="none" stroke="black" d="M328.08,-144.05C324.36,-133.21 319.55,-119.18 315.81,-108.28"/>
</g>
<!-- dav_to_phase -->
<g id="node9" class="node">
<title>dav_to_phase</title>
<ellipse fill="none" stroke="black" cx="447.89" cy="-90" rx="72.29" ry="18"/>
<text text-anchor="middle" x="447.89" y="-86.3" font-family="Times-Roman" font-size="14.00">dav_to_phase</text>
</g>
<!-- pat_unit_mux&#45;&#45;dav_to_phase -->
<g id="edge7" class="edge">
<title>pat_unit_mux&#45;&#45;dav_to_phase</title>
<path fill="none" stroke="black" d="M359.76,-145.12C378.42,-133.66 403.49,-118.26 422.13,-106.82"/>
</g>
</g>
</svg>
