<?xml version="1.0" encoding="UTF-8" standalone="no"?>
<!DOCTYPE svg PUBLIC "-//W3C//DTD SVG 1.1//EN"
 "http://www.w3.org/Graphics/SVG/1.1/DTD/svg11.dtd">
<!-- Generated by graphviz version 2.50.0 (0)
 -->
<!-- Pages: 1 -->
<svg width="998pt" height="404pt"
 viewBox="0.00 0.00 998.38 404.00" xmlns="http://www.w3.org/2000/svg" xmlns:xlink="http://www.w3.org/1999/xlink">
<g id="graph0" class="graph" transform="scale(1 1) rotate(0) translate(4 400)">
<polygon fill="white" stroke="transparent" points="-4,4 -4,-400 994.38,-400 994.38,4 -4,4"/>
<!-- chamber -->
<g id="node1" class="node">
<title>chamber</title>
<ellipse fill="none" stroke="black" cx="536.69" cy="-378" rx="41.69" ry="18"/>
<text text-anchor="middle" x="536.69" y="-374.3" font-family="Times,serif" font-size="14.00">chamber</text>
</g>
<!-- ila_chamber -->
<g id="node2" class="node">
<title>ila_chamber</title>
<ellipse fill="none" stroke="black" cx="368.69" cy="-162" rx="54.69" ry="18"/>
<text text-anchor="middle" x="368.69" y="-158.3" font-family="Times,serif" font-size="14.00">ila_chamber</text>
</g>
<!-- chamber&#45;&#45;ila_chamber -->
<g id="edge1" class="edge">
<title>chamber&#45;&#45;ila_chamber</title>
<path fill="none" stroke="black" d="M514.85,-362.66C484.62,-341.76 430.22,-300.13 398.69,-252 383.95,-229.49 375.75,-199.03 371.78,-180.21"/>
</g>
<!-- segment_selector -->
<g id="node6" class="node">
<title>segment_selector</title>
<ellipse fill="none" stroke="black" cx="252.69" cy="-306" rx="72.29" ry="18"/>
<text text-anchor="middle" x="252.69" y="-302.3" font-family="Times,serif" font-size="14.00">segment_selector</text>
</g>
<!-- chamber&#45;&#45;segment_selector -->
<g id="edge5" class="edge">
<title>chamber&#45;&#45;segment_selector</title>
<path fill="none" stroke="black" d="M501.58,-368.35C451.42,-355.98 359.02,-333.21 302.01,-319.16"/>
</g>
<!-- partition -->
<g id="node7" class="node">
<title>partition</title>
<ellipse fill="none" stroke="black" cx="536.69" cy="-306" rx="40.09" ry="18"/>
<text text-anchor="middle" x="536.69" y="-302.3" font-family="Times,serif" font-size="14.00">partition</text>
</g>
<!-- chamber&#45;&#45;partition -->
<g id="edge17" class="edge">
<title>chamber&#45;&#45;partition</title>
<path fill="none" stroke="black" d="M536.69,-359.7C536.69,-348.85 536.69,-334.92 536.69,-324.1"/>
</g>
<!-- dav_to_phase -->
<g id="node12" class="node">
<title>dav_to_phase</title>
<ellipse fill="none" stroke="black" cx="718.69" cy="-162" rx="59.29" ry="18"/>
<text text-anchor="middle" x="718.69" y="-158.3" font-family="Times,serif" font-size="14.00">dav_to_phase</text>
</g>
<!-- chamber&#45;&#45;dav_to_phase -->
<g id="edge20" class="edge">
<title>chamber&#45;&#45;dav_to_phase</title>
<path fill="none" stroke="black" d="M568.74,-366.23C612.53,-349.56 689.33,-312.93 721.69,-252 733.66,-229.47 728.95,-199.01 724.1,-180.2"/>
</g>
<!-- chamber_pulse_extension -->
<g id="node15" class="node">
<title>chamber_pulse_extension</title>
<ellipse fill="none" stroke="black" cx="887.69" cy="-306" rx="102.88" ry="18"/>
<text text-anchor="middle" x="887.69" y="-302.3" font-family="Times,serif" font-size="14.00">chamber_pulse_extension</text>
</g>
<!-- chamber&#45;&#45;chamber_pulse_extension -->
<g id="edge19" class="edge">
<title>chamber&#45;&#45;chamber_pulse_extension</title>
<path fill="none" stroke="black" d="M573.59,-369.64C632.64,-357.86 749.18,-334.62 822.5,-320"/>
</g>
<!-- bitonic_sort -->
<g id="node3" class="node">
<title>bitonic_sort</title>
<ellipse fill="none" stroke="black" cx="233.69" cy="-234" rx="52.79" ry="18"/>
<text text-anchor="middle" x="233.69" y="-230.3" font-family="Times,serif" font-size="14.00">bitonic_sort</text>
</g>
<!-- Bitonic_Sorter -->
<g id="node4" class="node">
<title>Bitonic_Sorter</title>
<ellipse fill="none" stroke="black" cx="233.69" cy="-162" rx="62.29" ry="18"/>
<text text-anchor="middle" x="233.69" y="-158.3" font-family="Times,serif" font-size="14.00">Bitonic_Sorter</text>
</g>
<!-- bitonic_sort&#45;&#45;Bitonic_Sorter -->
<g id="edge2" class="edge">
<title>bitonic_sort&#45;&#45;Bitonic_Sorter</title>
<path fill="none" stroke="black" d="M233.69,-215.7C233.69,-204.85 233.69,-190.92 233.69,-180.1"/>
</g>
<!-- sortnet_bitonicsort -->
<g id="node5" class="node">
<title>sortnet_bitonicsort</title>
<ellipse fill="none" stroke="black" cx="76.69" cy="-162" rx="76.89" ry="18"/>
<text text-anchor="middle" x="76.69" y="-158.3" font-family="Times,serif" font-size="14.00">sortnet_bitonicsort</text>
</g>
<!-- bitonic_sort&#45;&#45;sortnet_bitonicsort -->
<g id="edge3" class="edge">
<title>bitonic_sort&#45;&#45;sortnet_bitonicsort</title>
<path fill="none" stroke="black" d="M203.05,-219.34C176.55,-207.52 138.27,-190.46 110.8,-178.21"/>
</g>
<!-- segment_selector&#45;&#45;bitonic_sort -->
<g id="edge4" class="edge">
<title>segment_selector&#45;&#45;bitonic_sort</title>
<path fill="none" stroke="black" d="M248,-287.7C245.05,-276.85 241.27,-262.92 238.34,-252.1"/>
</g>
<!-- partition&#45;&#45;ila_chamber -->
<g id="edge6" class="edge">
<title>partition&#45;&#45;ila_chamber</title>
<path fill="none" stroke="black" d="M506.86,-293.77C485.28,-284.68 456.26,-270.38 434.69,-252 410.1,-231.03 389.36,-199.26 378.01,-179.89"/>
</g>
<!-- deghost -->
<g id="node8" class="node">
<title>deghost</title>
<ellipse fill="none" stroke="black" cx="652.69" cy="-234" rx="38.19" ry="18"/>
<text text-anchor="middle" x="652.69" y="-230.3" font-family="Times,serif" font-size="14.00">deghost</text>
</g>
<!-- partition&#45;&#45;deghost -->
<g id="edge7" class="edge">
<title>partition&#45;&#45;deghost</title>
<path fill="none" stroke="black" d="M559.61,-291.17C579.95,-278.9 609.5,-261.06 629.82,-248.8"/>
</g>
<!-- priority_encoder -->
<g id="node9" class="node">
<title>priority_encoder</title>
<ellipse fill="none" stroke="black" cx="451.69" cy="-90" rx="69.59" ry="18"/>
<text text-anchor="middle" x="451.69" y="-86.3" font-family="Times,serif" font-size="14.00">priority_encoder</text>
</g>
<!-- partition&#45;&#45;priority_encoder -->
<g id="edge9" class="edge">
<title>partition&#45;&#45;priority_encoder</title>
<path fill="none" stroke="black" d="M510.63,-292.01C495.42,-282.97 477.38,-269.43 467.69,-252 441.76,-205.36 445.51,-139.26 449.16,-108.28"/>
</g>
<!-- pat_unit_mux -->
<g id="node11" class="node">
<title>pat_unit_mux</title>
<ellipse fill="none" stroke="black" cx="536.69" cy="-234" rx="59.59" ry="18"/>
<text text-anchor="middle" x="536.69" y="-230.3" font-family="Times,serif" font-size="14.00">pat_unit_mux</text>
</g>
<!-- partition&#45;&#45;pat_unit_mux -->
<g id="edge15" class="edge">
<title>partition&#45;&#45;pat_unit_mux</title>
<path fill="none" stroke="black" d="M536.69,-287.7C536.69,-276.85 536.69,-262.92 536.69,-252.1"/>
</g>
<!-- partition&#45;&#45;dav_to_phase -->
<g id="edge16" class="edge">
<title>partition&#45;&#45;dav_to_phase</title>
<path fill="none" stroke="black" d="M576.58,-302.96C613.85,-298.86 668.32,-286.82 699.69,-252 717.46,-232.28 720.09,-200.11 719.8,-180.33"/>
</g>
<!-- r -->
<g id="node10" class="node">
<title>r</title>
<ellipse fill="none" stroke="black" cx="451.69" cy="-18" rx="27" ry="18"/>
<text text-anchor="middle" x="451.69" y="-14.3" font-family="Times,serif" font-size="14.00">r</text>
</g>
<!-- priority_encoder&#45;&#45;r -->
<g id="edge8" class="edge">
<title>priority_encoder&#45;&#45;r</title>
<path fill="none" stroke="black" d="M451.69,-71.7C451.69,-60.85 451.69,-46.92 451.69,-36.1"/>
</g>
<!-- pat_unit_mux&#45;&#45;ila_chamber -->
<g id="edge10" class="edge">
<title>pat_unit_mux&#45;&#45;ila_chamber</title>
<path fill="none" stroke="black" d="M503.1,-219C473.42,-206.63 430.4,-188.71 401.09,-176.5"/>
</g>
<!-- pat_unit_mux&#45;&#45;dav_to_phase -->
<g id="edge11" class="edge">
<title>pat_unit_mux&#45;&#45;dav_to_phase</title>
<path fill="none" stroke="black" d="M572.22,-219.34C604.39,-206.96 651.52,-188.84 683.57,-176.51"/>
</g>
<!-- pat_unit -->
<g id="node13" class="node">
<title>pat_unit</title>
<ellipse fill="none" stroke="black" cx="536.69" cy="-162" rx="39.79" ry="18"/>
<text text-anchor="middle" x="536.69" y="-158.3" font-family="Times,serif" font-size="14.00">pat_unit</text>
</g>
<!-- pat_unit_mux&#45;&#45;pat_unit -->
<g id="edge14" class="edge">
<title>pat_unit_mux&#45;&#45;pat_unit</title>
<path fill="none" stroke="black" d="M536.69,-215.7C536.69,-204.85 536.69,-190.92 536.69,-180.1"/>
</g>
<!-- pat_unit&#45;&#45;priority_encoder -->
<g id="edge12" class="edge">
<title>pat_unit&#45;&#45;priority_encoder</title>
<path fill="none" stroke="black" d="M518.25,-145.81C504.48,-134.47 485.69,-119 471.58,-107.38"/>
</g>
<!-- hit_count -->
<g id="node14" class="node">
<title>hit_count</title>
<ellipse fill="none" stroke="black" cx="583.69" cy="-90" rx="44.39" ry="18"/>
<text text-anchor="middle" x="583.69" y="-86.3" font-family="Times,serif" font-size="14.00">hit_count</text>
</g>
<!-- pat_unit&#45;&#45;hit_count -->
<g id="edge13" class="edge">
<title>pat_unit&#45;&#45;hit_count</title>
<path fill="none" stroke="black" d="M547.83,-144.41C555.32,-133.25 565.16,-118.6 572.63,-107.47"/>
</g>
<!-- pulse_extension -->
<g id="node16" class="node">
<title>pulse_extension</title>
<ellipse fill="none" stroke="black" cx="887.69" cy="-234" rx="67.69" ry="18"/>
<text text-anchor="middle" x="887.69" y="-230.3" font-family="Times,serif" font-size="14.00">pulse_extension</text>
</g>
<!-- chamber_pulse_extension&#45;&#45;pulse_extension -->
<g id="edge18" class="edge">
<title>chamber_pulse_extension&#45;&#45;pulse_extension</title>
<path fill="none" stroke="black" d="M887.69,-287.7C887.69,-276.85 887.69,-262.92 887.69,-252.1"/>
</g>
</g>
</svg>
