<?xml version="1.0" encoding="UTF-8" standalone="no"?>
<!DOCTYPE svg PUBLIC "-//W3C//DTD SVG 1.1//EN"
 "http://www.w3.org/Graphics/SVG/1.1/DTD/svg11.dtd">
<!-- Generated by graphviz version 2.43.0 (0)
 -->
<!-- Title: %3 Pages: 1 -->
<svg width="459pt" height="46pt"
 viewBox="0.00 0.00 459.00 46.00" xmlns="http://www.w3.org/2000/svg" xmlns:xlink="http://www.w3.org/1999/xlink">
<g id="graph0" class="graph" transform="scale(1 1) rotate(0) translate(4 42)">
<title>%3</title>
<polygon fill="white" stroke="transparent" points="-4,4 -4,-42 455,-42 455,4 -4,4"/>
<!-- Input\nSbits -->
<g id="node1" class="node">
<title>Input\nSbits</title>
<polygon fill="none" stroke="black" points="54,-38 0,-38 0,0 54,0 54,-38"/>
<text text-anchor="middle" x="27" y="-22.8" font-family="Times,serif" font-size="14.00">Input</text>
<text text-anchor="middle" x="27" y="-7.8" font-family="Times,serif" font-size="14.00">Sbits</text>
</g>
<!-- Segment\nIdentification -->
<g id="node2" class="node">
<title>Segment\nIdentification</title>
<polygon fill="none" stroke="black" points="179,-38 90,-38 90,0 179,0 179,-38"/>
<text text-anchor="middle" x="134.5" y="-22.8" font-family="Times,serif" font-size="14.00">Segment</text>
<text text-anchor="middle" x="134.5" y="-7.8" font-family="Times,serif" font-size="14.00">Identification</text>
</g>
<!-- Input\nSbits&#45;&gt;Segment\nIdentification -->
<g id="edge1" class="edge">
<title>Input\nSbits&#45;&gt;Segment\nIdentification</title>
<path fill="none" stroke="black" d="M54.08,-19C61.88,-19 70.74,-19 79.64,-19"/>
<polygon fill="black" stroke="black" points="79.66,-22.5 89.66,-19 79.66,-15.5 79.66,-22.5"/>
</g>
<!-- Sorting -->
<g id="node3" class="node">
<title>Sorting</title>
<polygon fill="none" stroke="black" points="271,-37 215,-37 215,-1 271,-1 271,-37"/>
<text text-anchor="middle" x="243" y="-15.3" font-family="Times,serif" font-size="14.00">Sorting</text>
</g>
<!-- Segment\nIdentification&#45;&gt;Sorting -->
<g id="edge2" class="edge">
<title>Segment\nIdentification&#45;&gt;Sorting</title>
<path fill="none" stroke="black" d="M179.12,-19C187.61,-19 196.43,-19 204.68,-19"/>
<polygon fill="black" stroke="black" points="204.77,-22.5 214.77,-19 204.77,-15.5 204.77,-22.5"/>
</g>
<!-- Fitting -->
<g id="node4" class="node">
<title>Fitting</title>
<polygon fill="none" stroke="black" points="361,-37 307,-37 307,-1 361,-1 361,-37"/>
<text text-anchor="middle" x="334" y="-15.3" font-family="Times,serif" font-size="14.00">Fitting</text>
</g>
<!-- Sorting&#45;&gt;Fitting -->
<g id="edge3" class="edge">
<title>Sorting&#45;&gt;Fitting</title>
<path fill="none" stroke="black" d="M271.19,-19C279.25,-19 288.22,-19 296.77,-19"/>
<polygon fill="black" stroke="black" points="296.89,-22.5 306.89,-19 296.89,-15.5 296.89,-22.5"/>
</g>
<!-- Output -->
<g id="node5" class="node">
<title>Output</title>
<polygon fill="none" stroke="black" points="451,-37 397,-37 397,-1 451,-1 451,-37"/>
<text text-anchor="middle" x="424" y="-15.3" font-family="Times,serif" font-size="14.00">Output</text>
</g>
<!-- Fitting&#45;&gt;Output -->
<g id="edge4" class="edge">
<title>Fitting&#45;&gt;Output</title>
<path fill="none" stroke="black" d="M361.4,-19C369.39,-19 378.31,-19 386.82,-19"/>
<polygon fill="black" stroke="black" points="386.92,-22.5 396.92,-19 386.92,-15.5 386.92,-22.5"/>
</g>
</g>
</svg>
