<?xml version="1.0" encoding="UTF-8" standalone="no"?>
<!DOCTYPE svg PUBLIC "-//W3C//DTD SVG 1.1//EN"
 "http://www.w3.org/Graphics/SVG/1.1/DTD/svg11.dtd">
<!-- Generated by graphviz version 2.44.0 (0)
 -->
<!-- Pages: 1 -->
<svg width="683pt" height="46pt"
 viewBox="0.00 0.00 683.00 46.00" xmlns="http://www.w3.org/2000/svg" xmlns:xlink="http://www.w3.org/1999/xlink">
<g id="graph0" class="graph" transform="scale(1 1) rotate(0) translate(4 42)">
<polygon fill="white" stroke="transparent" points="-4,4 -4,-42 679,-42 679,4 -4,4"/>
<!-- Input\nSbits -->
<g id="node1" class="node">
<title>Input\nSbits</title>
<polygon fill="none" stroke="black" points="58,-38 0,-38 0,0 58,0 58,-38"/>
<text text-anchor="middle" x="29" y="-22.8" font-family="Roboto Mono" font-size="14.00">Input</text>
<text text-anchor="middle" x="29" y="-7.8" font-family="Roboto Mono" font-size="14.00">Sbits</text>
</g>
<!-- Centroid\nFiltering -->
<g id="node2" class="node">
<title>Centroid\nFiltering</title>
<polygon fill="none" stroke="black" points="185,-38 94,-38 94,0 185,0 185,-38"/>
<text text-anchor="middle" x="139.5" y="-22.8" font-family="Roboto Mono" font-size="14.00">Centroid</text>
<text text-anchor="middle" x="139.5" y="-7.8" font-family="Roboto Mono" font-size="14.00">Filtering</text>
</g>
<!-- Input\nSbits&#45;&gt;Centroid\nFiltering -->
<g id="edge1" class="edge">
<title>Input\nSbits&#45;&gt;Centroid\nFiltering</title>
<path fill="none" stroke="black" d="M58.22,-19C65.99,-19 74.68,-19 83.4,-19"/>
<polygon fill="black" stroke="black" points="83.6,-22.5 93.6,-19 83.6,-15.5 83.6,-22.5"/>
</g>
<!-- Segment\nIdentification -->
<g id="node3" class="node">
<title>Segment\nIdentification</title>
<polygon fill="none" stroke="black" points="353,-38 221,-38 221,0 353,0 353,-38"/>
<text text-anchor="middle" x="287" y="-22.8" font-family="Roboto Mono" font-size="14.00">Segment</text>
<text text-anchor="middle" x="287" y="-7.8" font-family="Roboto Mono" font-size="14.00">Identification</text>
</g>
<!-- Centroid\nFiltering&#45;&gt;Segment\nIdentification -->
<g id="edge2" class="edge">
<title>Centroid\nFiltering&#45;&gt;Segment\nIdentification</title>
<path fill="none" stroke="black" d="M185.34,-19C193.44,-19 202.09,-19 210.78,-19"/>
<polygon fill="black" stroke="black" points="210.98,-22.5 220.98,-19 210.98,-15.5 210.98,-22.5"/>
</g>
<!-- Sorting -->
<g id="node4" class="node">
<title>Sorting</title>
<polygon fill="none" stroke="black" points="463,-37 389,-37 389,-1 463,-1 463,-37"/>
<text text-anchor="middle" x="426" y="-15.3" font-family="Roboto Mono" font-size="14.00">Sorting</text>
</g>
<!-- Segment\nIdentification&#45;&gt;Sorting -->
<g id="edge3" class="edge">
<title>Segment\nIdentification&#45;&gt;Sorting</title>
<path fill="none" stroke="black" d="M353.29,-19C361.92,-19 370.61,-19 378.82,-19"/>
<polygon fill="black" stroke="black" points="378.93,-22.5 388.93,-19 378.93,-15.5 378.93,-22.5"/>
</g>
<!-- Fitting -->
<g id="node5" class="node">
<title>Fitting</title>
<polygon fill="none" stroke="black" points="573,-37 499,-37 499,-1 573,-1 573,-37"/>
<text text-anchor="middle" x="536" y="-15.3" font-family="Roboto Mono" font-size="14.00">Fitting</text>
</g>
<!-- Sorting&#45;&gt;Fitting -->
<g id="edge4" class="edge">
<title>Sorting&#45;&gt;Fitting</title>
<path fill="none" stroke="black" d="M463.26,-19C471.37,-19 480.07,-19 488.52,-19"/>
<polygon fill="black" stroke="black" points="488.65,-22.5 498.65,-19 488.65,-15.5 488.65,-22.5"/>
</g>
<!-- Output -->
<g id="node6" class="node">
<title>Output</title>
<polygon fill="none" stroke="black" points="675,-37 609,-37 609,-1 675,-1 675,-37"/>
<text text-anchor="middle" x="642" y="-15.3" font-family="Roboto Mono" font-size="14.00">Output</text>
</g>
<!-- Fitting&#45;&gt;Output -->
<g id="edge5" class="edge">
<title>Fitting&#45;&gt;Output</title>
<path fill="none" stroke="black" d="M573.08,-19C581.34,-19 590.19,-19 598.69,-19"/>
<polygon fill="black" stroke="black" points="598.8,-22.5 608.8,-19 598.8,-15.5 598.8,-22.5"/>
</g>
</g>
</svg>
