<?xml version="1.0" encoding="UTF-8" standalone="no"?>
<!DOCTYPE svg PUBLIC "-//W3C//DTD SVG 1.1//EN"
 "http://www.w3.org/Graphics/SVG/1.1/DTD/svg11.dtd">
<!-- Generated by graphviz version 2.44.0 (0)
 -->
<!-- Pages: 1 -->
<svg width="556pt" height="46pt"
 viewBox="0.00 0.00 556.00 46.00" xmlns="http://www.w3.org/2000/svg" xmlns:xlink="http://www.w3.org/1999/xlink">
<g id="graph0" class="graph" transform="scale(1 1) rotate(0) translate(4 42)">
<polygon fill="white" stroke="transparent" points="-4,4 -4,-42 552,-42 552,4 -4,4"/>
<!-- Input\nSbits -->
<g id="node1" class="node">
<title>Input\nSbits</title>
<polygon fill="none" stroke="black" points="58,-38 0,-38 0,0 58,0 58,-38"/>
<text text-anchor="middle" x="29" y="-22.8" font-family="Roboto Mono" font-size="14.00">Input</text>
<text text-anchor="middle" x="29" y="-7.8" font-family="Roboto Mono" font-size="14.00">Sbits</text>
</g>
<!-- Segment\nIdentification -->
<g id="node2" class="node">
<title>Segment\nIdentification</title>
<polygon fill="none" stroke="black" points="226,-38 94,-38 94,0 226,0 226,-38"/>
<text text-anchor="middle" x="160" y="-22.8" font-family="Roboto Mono" font-size="14.00">Segment</text>
<text text-anchor="middle" x="160" y="-7.8" font-family="Roboto Mono" font-size="14.00">Identification</text>
</g>
<!-- Input\nSbits&#45;&gt;Segment\nIdentification -->
<g id="edge1" class="edge">
<title>Input\nSbits&#45;&gt;Segment\nIdentification</title>
<path fill="none" stroke="black" d="M58.31,-19C65.96,-19 74.62,-19 83.56,-19"/>
<polygon fill="black" stroke="black" points="83.75,-22.5 93.75,-19 83.75,-15.5 83.75,-22.5"/>
</g>
<!-- Sorting -->
<g id="node3" class="node">
<title>Sorting</title>
<polygon fill="none" stroke="black" points="336,-37 262,-37 262,-1 336,-1 336,-37"/>
<text text-anchor="middle" x="299" y="-15.3" font-family="Roboto Mono" font-size="14.00">Sorting</text>
</g>
<!-- Segment\nIdentification&#45;&gt;Sorting -->
<g id="edge2" class="edge">
<title>Segment\nIdentification&#45;&gt;Sorting</title>
<path fill="none" stroke="black" d="M226.29,-19C234.92,-19 243.61,-19 251.82,-19"/>
<polygon fill="black" stroke="black" points="251.93,-22.5 261.93,-19 251.93,-15.5 251.93,-22.5"/>
</g>
<!-- Fitting -->
<g id="node4" class="node">
<title>Fitting</title>
<polygon fill="none" stroke="black" points="446,-37 372,-37 372,-1 446,-1 446,-37"/>
<text text-anchor="middle" x="409" y="-15.3" font-family="Roboto Mono" font-size="14.00">Fitting</text>
</g>
<!-- Sorting&#45;&gt;Fitting -->
<g id="edge3" class="edge">
<title>Sorting&#45;&gt;Fitting</title>
<path fill="none" stroke="black" d="M336.26,-19C344.37,-19 353.07,-19 361.52,-19"/>
<polygon fill="black" stroke="black" points="361.65,-22.5 371.65,-19 361.65,-15.5 361.65,-22.5"/>
</g>
<!-- Output -->
<g id="node5" class="node">
<title>Output</title>
<polygon fill="none" stroke="black" points="548,-37 482,-37 482,-1 548,-1 548,-37"/>
<text text-anchor="middle" x="515" y="-15.3" font-family="Roboto Mono" font-size="14.00">Output</text>
</g>
<!-- Fitting&#45;&gt;Output -->
<g id="edge4" class="edge">
<title>Fitting&#45;&gt;Output</title>
<path fill="none" stroke="black" d="M446.08,-19C454.34,-19 463.19,-19 471.69,-19"/>
<polygon fill="black" stroke="black" points="471.8,-22.5 481.8,-19 471.8,-15.5 471.8,-22.5"/>
</g>
</g>
</svg>
